<?xml version="1.0" encoding="utf-8"?>
<!-- Generator: Adobe Illustrator 26.3.1, SVG Export Plug-In . SVG Version: 6.00 Build 0)  -->
<svg version="1.1" id="图层_1" xmlns="http://www.w3.org/2000/svg" xmlns:xlink="http://www.w3.org/1999/xlink" x="0px" y="0px"
	 viewBox="0 0 1024 1024" style="enable-background:new 0 0 1024 1024;" xml:space="preserve">
<style type="text/css">
	.st0{clip-path:url(#SVGID_00000096770707706966070690000007319028685780465306_);}
	.st1{fill:#FFFFFF;}
	.st2{font-family:'ArialMT';}
	.st3{font-size:391.874px;}
	.st4{clip-path:url(#SVGID_00000088814610886882248900000006636664394301940868_);}
	.st5{fill:#15D9B4;}
	.st6{opacity:0.3;}
	.st7{clip-path:url(#SVGID_00000081631540853032805950000018169520687816586683_);}
	.st8{fill:#F2F2F2;}
	.st9{clip-path:url(#SVGID_00000123412592926448736910000006637513257098927253_);}
	.st10{clip-path:url(#SVGID_00000133500055881754607400000001992390891567392389_);}
	.st11{fill:none;stroke:#3CFBCF;stroke-width:12.2148;stroke-miterlimit:5;}
	.st12{clip-path:url(#SVGID_00000165952643757316236660000009407900984873490563_);}
	.st13{fill:url(#SVGID_00000114031606834219552530000010896971982266316712_);}
	.st14{clip-path:url(#SVGID_00000056429249555550650820000007467230951569895097_);}
	.st15{clip-path:url(#SVGID_00000032622161902529147030000002778634509657690797_);}
	.st16{clip-path:url(#SVGID_00000044158876276007664030000014884336016569178245_);}
</style>
<g transform="translate(-58.0 -46.0)">
	<g>
		<defs>
			<rect id="SVGID_1_" x="-95.47" y="-99.08" width="1330.95" height="1314.15"/>
		</defs>
		<clipPath id="SVGID_00000035488479620767473570000010506655065378571658_">
			<use xlink:href="#SVGID_1_"  style="overflow:visible;"/>
		</clipPath>
		<g style="clip-path:url(#SVGID_00000035488479620767473570000010506655065378571658_);">
			<g transform="translate(65.80169681232447 46.69798745428254) rotate(2.0)">
				<g transform="translate(31.68369776955433 -2.842170943040401e-14)">
					<g transform="translate(35.68030105259653 50.16558775165748)">
						<g transform="">
							<text transform="matrix(1 0 0 1 332.1512 538.3942)" class="st1 st2 st3">Fc</text>
						</g>
					</g>
					<path d="M843.93,84.03c3.73,0,7.1,1.51,9.54,3.95c2.44,2.44,3.95,5.82,3.95,9.54l0,711.58c0,3.73-1.51,7.1-3.95,9.54
						c-2.44,2.44-5.82,3.95-9.54,3.95l-574.62,0c-3.73,0-7.1-1.51-9.54-3.95c-2.44-2.44-3.95-5.82-3.95-9.54l0-711.58
						c0-3.73,1.51-7.1,3.95-9.54c2.44-2.44,5.82-3.95,9.54-3.95L843.93,84.03z"/>
					<g>
						<defs>
							<path id="SVGID_00000065782074343265911020000008536768071246067640_" d="M843.93,46.25c28.32,0,51.28,22.96,51.28,51.28
								l0,711.58c0,28.32-22.96,51.28-51.28,51.28l-574.62,0c-28.32,0-51.28-22.96-51.28-51.28l0-711.58
								c0-28.32,22.96-51.28,51.28-51.28L843.93,46.25z"/>
						</defs>
						<clipPath id="SVGID_00000015328315510778353920000014544943878531443843_">
							<use xlink:href="#SVGID_00000065782074343265911020000008536768071246067640_"  style="overflow:visible;"/>
						</clipPath>
						<g style="clip-path:url(#SVGID_00000015328315510778353920000014544943878531443843_);">
							<polygon class="st5" points="218.03,46.25 895.21,46.25 895.21,860.4 218.02,860.4 							"/>
						</g>
					</g>
					<g transform="translate(12.791640280978982 12.169377403047292)" class="st6">
						<g>
							<defs>
								<path id="SVGID_00000043422714472993161240000006605016713715822524_" d="M826.4,783.01c3.85,0,6.98,3.12,6.98,6.98
									s-3.12,6.98-6.98,6.98l-560.49,0c-3.85,0-6.98-3.12-6.98-6.98c0-3.85,3.12-6.98,6.98-6.98L826.4,783.01z M826.4,724.86
									c3.85,0,6.98,3.12,6.98,6.98c0,3.85-3.12,6.98-6.98,6.98l-560.49,0c-3.85,0-6.98-3.12-6.98-6.98c0-3.85,3.12-6.98,6.98-6.98
									L826.4,724.86z M826.4,666.71c3.85,0,6.98,3.12,6.98,6.98s-3.12,6.98-6.98,6.98l-560.49,0c-3.85,0-6.98-3.12-6.98-6.98
									c0-3.85,3.12-6.98,6.98-6.98L826.4,666.71z M826.4,608.55c3.85,0,6.98,3.12,6.98,6.98s-3.12,6.98-6.98,6.98l-560.49,0
									c-3.85,0-6.98-3.12-6.98-6.98c0-3.85,3.12-6.98,6.98-6.98L826.4,608.55z M826.4,550.4c3.85,0,6.98,3.12,6.98,6.98
									s-3.12,6.98-6.98,6.98l-560.49,0c-3.85,0-6.98-3.12-6.98-6.98c0-3.85,3.12-6.98,6.98-6.98L826.4,550.4z M826.4,492.25
									c3.85,0,6.98,3.12,6.98,6.98s-3.12,6.98-6.98,6.98l-560.49,0c-3.85,0-6.98-3.12-6.98-6.98s3.12-6.98,6.98-6.98L826.4,492.25
									z M826.4,434.09c3.85,0,6.98,3.12,6.98,6.98c0,3.85-3.12,6.98-6.98,6.98l-560.49,0c-3.85,0-6.98-3.12-6.98-6.98
									c0-3.85,3.12-6.98,6.98-6.98L826.4,434.09z M826.4,375.94c3.85,0,6.98,3.12,6.98,6.98c0,3.85-3.12,6.98-6.98,6.98l-560.49,0
									c-3.85,0-6.98-3.12-6.98-6.98c0-3.85,3.12-6.98,6.98-6.98L826.4,375.94z M826.4,317.79c3.85,0,6.98,3.12,6.98,6.98
									c0,3.85-3.12,6.98-6.98,6.98l-560.49,0c-3.85,0-6.98-3.12-6.98-6.98c0-3.85,3.12-6.98,6.98-6.98L826.4,317.79z
									 M826.4,259.63c3.85,0,6.98,3.12,6.98,6.98c0,3.85-3.12,6.98-6.98,6.98l-560.49,0c-3.85,0-6.98-3.12-6.98-6.98
									c0-3.85,3.12-6.98,6.98-6.98L826.4,259.63z M826.4,201.48c3.85,0,6.98,3.12,6.98,6.98s-3.12,6.98-6.98,6.98l-560.49,0
									c-3.85,0-6.98-3.12-6.98-6.98c0-3.85,3.12-6.98,6.98-6.98L826.4,201.48z M826.4,143.32c3.85,0,6.98,3.12,6.98,6.98
									s-3.12,6.98-6.98,6.98l-560.49,0c-3.85,0-6.98-3.12-6.98-6.98s3.12-6.98,6.98-6.98L826.4,143.32z M826.4,85.17
									c3.85,0,6.98,3.12,6.98,6.98c0,3.85-3.12,6.98-6.98,6.98l-560.49,0c-3.85,0-6.98-3.12-6.98-6.98c0-3.85,3.12-6.98,6.98-6.98
									L826.4,85.17z"/>
							</defs>
							<use xlink:href="#SVGID_00000043422714472993161240000006605016713715822524_"  style="overflow:visible;fill:#F2F2F2;"/>
							<clipPath id="SVGID_00000052102357390376105450000006280291383148610730_">
								<use xlink:href="#SVGID_00000043422714472993161240000006605016713715822524_"  style="overflow:visible;"/>
							</clipPath>
							<g style="clip-path:url(#SVGID_00000052102357390376105450000006280291383148610730_);">
								<polygon class="st8" points="258.94,85.17 833.38,85.17 833.38,796.97 258.94,796.97 								"/>
							</g>
						</g>
					</g>
					<g transform="translate(34.56270967113852 50.30815583203176)">
						<g>
							<defs>
								<path id="SVGID_00000030466661921258656730000015642091623685028750_" d="M657.56,339.47c12.76,0,23.98,1.59,33.68,4.78
									c9.69,3.19,19.39,7.72,29.08,13.59c5.1,3.57,7.65,8.16,7.65,13.78c0,3.83-1.53,7.4-4.59,10.72s-6.51,4.97-10.33,4.97
									c-2.55,0-5.36-0.77-8.42-2.3c-8.93-4.59-16.33-7.78-22.2-9.57c-5.87-1.79-13.14-2.68-21.81-2.68
									c-21.43,0-38.46,6.19-51.09,18.56c-12.63,12.37-18.94,29.02-18.94,49.94c0,20.92,6.31,37.57,18.94,49.94
									s29.66,18.56,51.09,18.56c8.67,0,15.95-0.89,21.81-2.68s13.27-4.97,22.2-9.57c3.06-1.53,5.87-2.3,8.42-2.3
									c3.83,0,7.27,1.66,10.33,4.97s4.59,6.89,4.59,10.72c0,5.61-2.55,10.21-7.65,13.78c-9.69,5.87-19.39,10.4-29.08,13.59
									c-9.69,3.19-20.92,4.78-33.68,4.78c-18.11,0-35.08-4.08-50.9-12.25c-16.07-8.42-28.7-20.41-37.89-35.97
									c-9.18-15.56-13.78-33.42-13.78-53.58c0-20.67,4.72-38.78,14.16-54.34c9.18-15.05,21.49-26.72,36.93-35.02
									C621.52,343.61,638.68,339.47,657.56,339.47z M531.78,271.35c4.59,0,8.55,1.66,11.86,4.97c3.32,3.32,4.97,7.27,4.97,11.86
									c0,4.59-1.66,8.48-4.97,11.67c-3.32,3.19-7.27,4.78-11.86,4.78l-126.29,0c-3.06,0-4.59,1.53-4.59,4.59l0,79.22l117.49,0
									c4.59,0,8.55,1.66,11.86,4.97c3.32,3.32,4.97,7.27,4.97,11.86c0,4.59-1.66,8.48-4.97,11.67c-3.32,3.19-7.27,4.78-11.86,4.78
									l-117.49,0l0,101.8c0,4.85-1.79,8.99-5.36,12.44c-3.57,3.44-7.78,5.17-12.63,5.17c-4.85,0-8.99-1.72-12.44-5.17
									s-5.17-7.59-5.17-12.44l0-234.21c0-4.85,1.72-9.06,5.17-12.63c3.44-3.57,7.59-5.36,12.44-5.36L531.78,271.35z"/>
							</defs>
							<clipPath id="SVGID_00000163784810240566534710000005707516970619775152_">
								<use xlink:href="#SVGID_00000030466661921258656730000015642091623685028750_"  style="overflow:visible;"/>
							</clipPath>
							<g style="clip-path:url(#SVGID_00000163784810240566534710000005707516970619775152_);">
								<polygon class="st1" points="365.31,271.35 727.97,271.35 727.97,543.06 365.31,543.06 								"/>
							</g>
						</g>
						<g>
							<defs>
								<path id="SVGID_00000169527849859377005330000013973591162636977849_" d="M757.81,241.51l0,331.39l-422.34,0l0-331.39
									L757.81,241.51z M657.56,339.47c-18.88,0-36.04,4.15-51.47,12.44c-15.44,8.29-27.74,19.96-36.93,35.02
									c-9.44,15.56-14.16,33.68-14.16,54.34c0,20.15,4.59,38.01,13.78,53.58c9.18,15.56,21.81,27.55,37.89,35.97
									c15.82,8.16,32.78,12.25,50.9,12.25c12.76,0,23.98-1.59,33.68-4.78c9.69-3.19,19.39-7.72,29.08-13.59
									c5.1-3.57,7.65-8.16,7.65-13.78c0-3.83-1.53-7.4-4.59-10.72s-6.51-4.97-10.33-4.97c-2.55,0-5.36,0.77-8.42,2.3
									c-8.93,4.59-16.33,7.78-22.2,9.57s-13.14,2.68-21.81,2.68c-21.43,0-38.46-6.19-51.09-18.56s-18.94-29.02-18.94-49.94
									c0-20.92,6.31-37.57,18.94-49.94c12.63-12.37,29.66-18.56,51.09-18.56c8.67,0,15.95,0.89,21.81,2.68
									c5.87,1.79,13.27,4.97,22.2,9.57c3.06,1.53,5.87,2.3,8.42,2.3c3.83,0,7.27-1.66,10.33-4.97s4.59-6.89,4.59-10.72
									c0-5.61-2.55-10.21-7.65-13.78c-9.69-5.87-19.39-10.4-29.08-13.59C681.54,341.06,670.31,339.47,657.56,339.47z
									 M531.78,271.35l-148.87,0c-4.85,0-8.99,1.79-12.44,5.36c-3.44,3.57-5.17,7.78-5.17,12.63l0,234.21
									c0,4.85,1.72,8.99,5.17,12.44s7.59,5.17,12.44,5.17c4.85,0,9.06-1.72,12.63-5.17c3.57-3.44,5.36-7.59,5.36-12.44l0-101.8
									l117.49,0c4.59,0,8.55-1.59,11.86-4.78c3.32-3.19,4.97-7.08,4.97-11.67c0-4.59-1.66-8.55-4.97-11.86
									c-3.32-3.32-7.27-4.97-11.86-4.97l-117.49,0l0-79.22c0-3.06,1.53-4.59,4.59-4.59l126.29,0c4.59,0,8.55-1.59,11.86-4.78
									c3.32-3.19,4.97-7.08,4.97-11.67c0-4.59-1.66-8.55-4.97-11.86C540.33,273.01,536.38,271.35,531.78,271.35z"/>
							</defs>
							<clipPath id="SVGID_00000066508853271364071440000003880077150201939873_">
								<use xlink:href="#SVGID_00000169527849859377005330000013973591162636977849_"  style="overflow:visible;"/>
							</clipPath>
							<g style="clip-path:url(#SVGID_00000066508853271364071440000003880077150201939873_);">
								<path class="st11" d="M382.92,541.14c-4.85,0-8.99-1.72-12.44-5.17s-5.17-7.59-5.17-12.44l0-234.21
									c0-4.85,1.72-9.06,5.17-12.63c3.44-3.57,7.59-5.36,12.44-5.36l148.87,0c4.59,0,8.55,1.66,11.86,4.97
									c3.32,3.32,4.97,7.27,4.97,11.86c0,4.59-1.66,8.48-4.97,11.67c-3.32,3.19-7.27,4.78-11.86,4.78l-126.29,0
									c-3.06,0-4.59,1.53-4.59,4.59l0,79.22l117.49,0c4.59,0,8.55,1.66,11.86,4.97c3.32,3.32,4.97,7.27,4.97,11.86
									c0,4.59-1.66,8.48-4.97,11.67c-3.32,3.19-7.27,4.78-11.86,4.78l-117.49,0l0,101.8c0,4.85-1.79,8.99-5.36,12.44
									C391.98,539.42,387.77,541.14,382.92,541.14z M606.66,530.81c-16.07-8.42-28.7-20.41-37.89-35.97
									c-9.18-15.56-13.78-33.42-13.78-53.58c0-20.67,4.72-38.78,14.16-54.34c9.18-15.05,21.49-26.72,36.93-35.02
									c15.44-8.29,32.59-12.44,51.47-12.44c12.76,0,23.98,1.59,33.68,4.78c9.69,3.19,19.39,7.72,29.08,13.59
									c5.1,3.57,7.65,8.16,7.65,13.78c0,3.83-1.53,7.4-4.59,10.72s-6.51,4.97-10.33,4.97c-2.55,0-5.36-0.77-8.42-2.3
									c-8.93-4.59-16.33-7.78-22.2-9.57c-5.87-1.79-13.14-2.68-21.81-2.68c-21.43,0-38.46,6.19-51.09,18.56
									c-12.63,12.37-18.94,29.02-18.94,49.94c0,20.92,6.31,37.57,18.94,49.94s29.66,18.56,51.09,18.56
									c8.67,0,15.95-0.89,21.81-2.68s13.27-4.97,22.2-9.57c3.06-1.53,5.87-2.3,8.42-2.3c3.83,0,7.27,1.66,10.33,4.97
									s4.59,6.89,4.59,10.72c0,5.61-2.55,10.21-7.65,13.78c-9.69,5.87-19.39,10.4-29.08,13.59c-9.69,3.19-20.92,4.78-33.68,4.78
									C639.44,543.06,622.48,538.98,606.66,530.81z"/>
							</g>
						</g>
					</g>
				</g>
				<g transform="translate(-5.684341886080802e-14 19.583415523950308) rotate(-4.0)">
					<g transform="translate(36.81307363473297 50.05660824682181)">
						<text transform="matrix(1 0 0 1 226.5527 608.5549)" class="st1 st2 st3">Fc</text>
					</g>
					<g transform="">
						<path d="M758.06,154.55c3.73,0,7.1,1.51,9.54,3.95c2.44,2.44,3.95,5.82,3.95,9.54v711.58c0,3.73-1.51,7.1-3.95,9.54
							c-2.44,2.44-5.82,3.95-9.54,3.95l-597.97,0c-3.73,0-7.1-1.51-9.54-3.95c-2.44-2.44-3.95-5.82-3.95-9.54l0-711.58
							c0-3.73,1.51-7.1,3.95-9.54c2.44-2.44,5.82-3.95,9.54-3.95L758.06,154.55z"/>
						<g>
							<defs>
								<path id="SVGID_00000176763810640819239830000000108210724115776899_" d="M758.06,116.76c28.32,0,51.28,22.96,51.28,51.28
									v711.58c0,28.32-22.96,51.28-51.28,51.28l-597.97,0c-28.32,0-51.28-22.96-51.28-51.28l0-711.58
									c0-28.32,22.96-51.28,51.28-51.28L758.06,116.76z"/>
							</defs>
							<clipPath id="SVGID_00000121995013986601623030000005800570531482782899_">
								<use xlink:href="#SVGID_00000176763810640819239830000000108210724115776899_"  style="overflow:visible;"/>
							</clipPath>
							<g style="clip-path:url(#SVGID_00000121995013986601623030000005800570531482782899_);">
								
									<linearGradient id="SVGID_00000026842463478519824830000001645571162860662452_" gradientUnits="userSpaceOnUse" x1="173.7584" y1="-13.3521" x2="760.8223" y2="800.7988" gradientTransform="matrix(0.9994 0.0349 0.0349 -0.9994 6.2762 892.1953)">
									<stop  offset="0" style="stop-color:#1599D9"/>
									<stop  offset="1" style="stop-color:#1C96FF"/>
								</linearGradient>
								<polygon style="fill:url(#SVGID_00000026842463478519824830000001645571162860662452_);" points="108.8,116.76 
									809.34,116.76 809.34,930.91 108.8,930.91 								"/>
							</g>
						</g>
					</g>
					<g transform="translate(38.5569046996884 62.42105504201884)">
						<g>
							<defs>
								<path id="SVGID_00000044142419089231991210000003612852493189944756_" d="M415.41,316.42c5.06,0,9.41,1.82,13.06,5.46
									c3.65,3.64,5.48,7.97,5.48,13.01s-1.83,9.3-5.48,12.8c-3.65,3.5-8.01,5.25-13.06,5.25l-139.04,0
									c-3.37,0-5.06,1.68-5.06,5.04l0,86.88h129.35c5.06,0,9.41,1.82,13.06,5.46c3.65,3.64,5.48,7.97,5.48,13.01
									c0,5.04-1.83,9.3-5.48,12.8c-3.65,3.5-8.01,5.25-13.06,5.25H271.31v111.64c0,5.32-1.97,9.86-5.9,13.64s-8.57,5.67-13.9,5.67
									c-5.34,0-9.9-1.89-13.69-5.67s-5.69-8.32-5.69-13.64l0-256.87c0-5.32,1.9-9.93,5.69-13.85c3.79-3.92,8.36-5.88,13.69-5.88
									H415.41z"/>
							</defs>
							<clipPath id="SVGID_00000125588843105139738710000011064235951424881314_">
								<use xlink:href="#SVGID_00000044142419089231991210000003612852493189944756_"  style="overflow:visible;"/>
							</clipPath>
							<g style="clip-path:url(#SVGID_00000125588843105139738710000011064235951424881314_);">
								<polygon class="st1" points="232.13,316.42 433.95,316.42 433.95,612.32 232.13,612.32 								"/>
							</g>
						</g>
						<g transform="translate(49.739843439891274 17.794060668146557)">
							<g>
								<defs>
									<path id="SVGID_00000048500914113595146530000011551780271411729282_" d="M504.15,373.33c14.04,0,26.4,1.75,37.08,5.25
										c10.67,3.5,21.35,8.46,32.02,14.9c5.62,3.92,8.43,8.95,8.43,15.11c0,4.2-1.69,8.11-5.06,11.75
										c-3.37,3.64-7.16,5.46-11.38,5.46c-2.81,0-5.9-0.84-9.27-2.52c-9.83-5.04-17.98-8.53-24.44-10.49s-14.47-2.94-24.02-2.94
										c-23.59,0-42.34,6.79-56.25,20.36c-13.9,13.57-20.86,31.83-20.86,54.77c0,22.94,6.95,41.2,20.86,54.77
										c13.9,13.57,32.65,20.36,56.25,20.36c9.55,0,17.56-0.98,24.02-2.94c6.46-1.96,14.61-5.46,24.44-10.49
										c3.37-1.68,6.46-2.52,9.27-2.52c4.21,0,8.01,1.82,11.38,5.46s5.06,7.55,5.06,11.75c0,6.16-2.81,11.19-8.43,15.11
										c-10.67,6.44-21.35,11.4-32.02,14.9c-10.67,3.5-23.03,5.25-37.08,5.25c-19.94,0-38.62-4.48-56.04-13.43
										c-17.7-9.23-31.6-22.38-41.71-39.45c-10.11-17.07-15.17-36.66-15.17-58.76c0-22.66,5.2-42.53,15.59-59.6
										c10.11-16.51,23.67-29.31,40.66-38.4C464.47,377.88,483.36,373.33,504.15,373.33z"/>
								</defs>
								<clipPath id="SVGID_00000039115879959354837770000006816026220391568823_">
									<use xlink:href="#SVGID_00000048500914113595146530000011551780271411729282_"  style="overflow:visible;"/>
								</clipPath>
								<g style="clip-path:url(#SVGID_00000039115879959354837770000006816026220391568823_);">
									<polygon class="st1" points="391.23,373.33 581.67,373.33 581.67,596.62 391.23,596.62 									"/>
								</g>
							</g>
						</g>
					</g>
					<g transform="translate(13.367054039869117 11.66402113212527)" class="st6">
						<g>
							<defs>
								<path id="SVGID_00000078009177901625799560000010363382830188587959_" d="M740.04,851.91c3.85,0,6.98,3.12,6.98,6.98
									c0,3.85-3.12,6.98-6.98,6.98h-581.5c-3.85,0-6.98-3.12-6.98-6.98s3.12-6.98,6.98-6.98H740.04z M740.04,793.76
									c3.85,0,6.98,3.12,6.98,6.98c0,3.85-3.12,6.98-6.98,6.98h-581.5c-3.85,0-6.98-3.12-6.98-6.98c0-3.85,3.12-6.98,6.98-6.98
									H740.04z M740.04,735.6c3.85,0,6.98,3.12,6.98,6.98s-3.12,6.98-6.98,6.98h-581.5c-3.85,0-6.98-3.12-6.98-6.98
									c0-3.85,3.12-6.98,6.98-6.98L740.04,735.6z M243.2,677.45c9.06,8.94,20.74,13.75,33.5,13.75c12.7,0,24.34-4.75,33.5-13.55
									l0.2-0.2l201.11,0.01c13.84,6.92,28.31,11.57,43.34,13.96l-396.32-0.01c-3.85,0-6.98-3.12-6.98-6.98
									c0-3.85,3.12-6.98,6.98-6.98L243.2,677.45z M740.04,677.45c3.85,0,6.98,3.12,6.98,6.98s-3.12,6.98-6.98,6.98l-135.19,0
									c7.05-1.1,13.76-2.68,20.12-4.77c7.55-2.47,15.05-5.54,22.49-9.18L740.04,677.45z M229.09,619.29v13.96l-70.55,0
									c-3.85,0-6.98-3.12-6.98-6.98c0-3.85,3.12-6.98,6.98-6.98L229.09,619.29z M324.73,619.29L453,619.3
									c1.26,2.46,2.6,4.89,4.01,7.28c1.35,2.28,2.75,4.5,4.21,6.67l-136.49,0V619.29z M683.52,619.29l56.52,0
									c3.85,0,6.98,3.12,6.98,6.98s-3.12,6.98-6.98,6.98l-55.32,0c0.08-1.1,0.12-2.21,0.12-3.34
									C684.83,626.27,684.38,622.71,683.52,619.29z M229.09,561.14v13.96l-70.55,0c-3.85,0-6.98-3.12-6.98-6.98
									c0-3.85,3.12-6.98,6.98-6.98L229.09,561.14z M438.1,561.14c0.21,4.73,0.63,9.39,1.25,13.96l-114.61,0v-13.96L438.1,561.14z
									 M740.04,561.14c3.85,0,6.98,3.12,6.98,6.98c0,3.85-3.12,6.98-6.98,6.98l-202.84,0c-1.65-4.11-2.74-8.73-3.26-13.95
									L740.04,561.14z M740.04,502.99c3.85,0,6.98,3.12,6.98,6.98s-3.12,6.98-6.98,6.98l-78.99,0.01
									c4.11-2.33,7.88-5.36,11.24-8.99c1.48-1.59,2.84-3.25,4.07-4.98L740.04,502.99z M229.09,502.99v13.96l-70.55,0
									c-3.85,0-6.98-3.12-6.98-6.98c0-3.85,3.12-6.98,6.98-6.98L229.09,502.99z M582.45,506.52c6.96,0,12.27,0.65,15.8,1.72
									c4.41,1.34,10.72,4.02,18.65,8.04l1.3,0.66l-70.15,0c7.83-6.61,18.33-10.14,32.64-10.41L582.45,506.52z M229.09,444.84
									v13.96l-70.55,0c-3.85,0-6.98-3.12-6.98-6.98c0-3.85,3.12-6.98,6.98-6.98L229.09,444.84z M487.74,444.84
									c-5.28,4.27-10.21,8.92-14.78,13.95l-148.23,0v-13.96L487.74,444.84z M740.04,444.84c3.85,0,6.98,3.12,6.98,6.98
									c0,3.85-3.12,6.98-6.98,6.98l-59.01,0c-2.28-5.15-5.53-9.85-9.65-13.96L740.04,444.84z M229.09,386.68l0,0.22l0,13.74
									l-70.55,0c-3.85,0-6.98-3.12-6.98-6.98c0-3.85,3.12-6.98,6.98-6.98L229.09,386.68z M487.37,385.64l-0.02,1.04l252.68,0
									c3.85,0,6.98,3.12,6.98,6.98s-3.12,6.98-6.98,6.98l-255.14,0C486.53,395.91,487.37,390.87,487.37,385.64z M740.04,328.53
									c3.85,0,6.98,3.12,6.98,6.98c0,3.85-3.12,6.98-6.98,6.98l-281.76-0.01c-5.51-2.26-11.46-3.43-17.68-3.43H276.7
									c-6.26,0-12.25,1.17-17.79,3.43l-100.37,0.01c-3.85,0-6.98-3.12-6.98-6.98s3.12-6.98,6.98-6.98H740.04z M740.04,270.37
									c3.85,0,6.98,3.12,6.98,6.98c0,3.85-3.12,6.98-6.98,6.98l-581.5,0c-3.85,0-6.98-3.12-6.98-6.98c0-3.85,3.12-6.98,6.98-6.98
									L740.04,270.37z M740.04,212.22c3.85,0,6.98,3.12,6.98,6.98c0,3.85-3.12,6.98-6.98,6.98l-581.5,0
									c-3.85,0-6.98-3.12-6.98-6.98c0-3.85,3.12-6.98,6.98-6.98L740.04,212.22z M740.04,154.07c3.85,0,6.98,3.12,6.98,6.98
									c0,3.85-3.12,6.98-6.98,6.98l-581.5,0c-3.85,0-6.98-3.12-6.98-6.98s3.12-6.98,6.98-6.98L740.04,154.07z"/>
							</defs>
							<use xlink:href="#SVGID_00000078009177901625799560000010363382830188587959_"  style="overflow:visible;fill:#F2F2F2;"/>
							<clipPath id="SVGID_00000172427680089440866190000002599480359436567229_">
								<use xlink:href="#SVGID_00000078009177901625799560000010363382830188587959_"  style="overflow:visible;"/>
							</clipPath>
							<g style="clip-path:url(#SVGID_00000172427680089440866190000002599480359436567229_);">
								<polygon class="st8" points="151.56,154.07 747.02,154.07 747.02,865.87 151.56,865.87 								"/>
							</g>
						</g>
					</g>
				</g>
			</g>
		</g>
	</g>
</g>
</svg>
